<mxfile host="Electron" modified="2023-12-17T19:32:07.224Z" agent="Mozilla/5.0 (Windows NT 10.0; Win64; x64) AppleWebKit/537.36 (KHTML, like Gecko) draw.io/22.0.3 Chrome/114.0.5735.289 Electron/25.8.4 Safari/537.36" etag="wivMk86YtPXq8diLgpuP" version="22.0.3" type="device">
  <diagram name="Página-1" id="FRpVn15f4SssASn8a436">
    <mxGraphModel dx="2261" dy="844" grid="1" gridSize="10" guides="1" tooltips="1" connect="1" arrows="1" fold="1" page="1" pageScale="1" pageWidth="827" pageHeight="1169" math="0" shadow="0">
      <root>
        <mxCell id="0" />
        <mxCell id="1" parent="0" />
        <mxCell id="4A74jkATEMNdM1Fh0lgV-2" value="CONDUCTOR" style="whiteSpace=wrap;html=1;align=center;strokeColor=#DDA15E;fontColor=#FEFAE0;fillColor=#BC6C25;" vertex="1" parent="1">
          <mxGeometry x="120" y="440" width="100" height="40" as="geometry" />
        </mxCell>
        <mxCell id="4A74jkATEMNdM1Fh0lgV-3" value="LUGAR" style="whiteSpace=wrap;html=1;align=center;strokeColor=#DDA15E;fontColor=#FEFAE0;fillColor=#BC6C25;" vertex="1" parent="1">
          <mxGeometry x="580" y="440" width="100" height="40" as="geometry" />
        </mxCell>
        <mxCell id="4A74jkATEMNdM1Fh0lgV-4" value="AUTOBUS" style="whiteSpace=wrap;html=1;align=center;strokeColor=#DDA15E;fontColor=#FEFAE0;fillColor=#BC6C25;" vertex="1" parent="1">
          <mxGeometry x="350" y="720" width="100" height="40" as="geometry" />
        </mxCell>
        <mxCell id="4A74jkATEMNdM1Fh0lgV-5" value="Conduce" style="shape=rhombus;perimeter=rhombusPerimeter;whiteSpace=wrap;html=1;align=center;strokeColor=#DDA15E;fontColor=#FEFAE0;fillColor=#BC6C25;" vertex="1" parent="1">
          <mxGeometry x="340" y="555" width="120" height="60" as="geometry" />
        </mxCell>
        <mxCell id="4A74jkATEMNdM1Fh0lgV-6" value="Apellidos" style="ellipse;whiteSpace=wrap;html=1;align=center;strokeColor=#DDA15E;fontColor=#FEFAE0;fillColor=#BC6C25;" vertex="1" parent="1">
          <mxGeometry x="80" y="310" width="100" height="40" as="geometry" />
        </mxCell>
        <mxCell id="4A74jkATEMNdM1Fh0lgV-7" value="Apellido2" style="ellipse;whiteSpace=wrap;html=1;align=center;strokeColor=#DDA15E;fontColor=#FEFAE0;fillColor=#BC6C25;" vertex="1" parent="1">
          <mxGeometry x="130" y="220" width="100" height="40" as="geometry" />
        </mxCell>
        <mxCell id="4A74jkATEMNdM1Fh0lgV-8" value="Apellido1" style="ellipse;whiteSpace=wrap;html=1;align=center;strokeColor=#DDA15E;fontColor=#FEFAE0;fillColor=#BC6C25;" vertex="1" parent="1">
          <mxGeometry x="-10" y="220" width="100" height="40" as="geometry" />
        </mxCell>
        <mxCell id="4A74jkATEMNdM1Fh0lgV-9" value="Nombre" style="ellipse;whiteSpace=wrap;html=1;align=center;strokeColor=#DDA15E;fontColor=#FEFAE0;fillColor=#BC6C25;" vertex="1" parent="1">
          <mxGeometry x="-30" y="370" width="100" height="40" as="geometry" />
        </mxCell>
        <mxCell id="4A74jkATEMNdM1Fh0lgV-10" value="DNI" style="ellipse;whiteSpace=wrap;html=1;align=center;strokeColor=#DDA15E;fontColor=#FEFAE0;fillColor=#BC6C25;" vertex="1" parent="1">
          <mxGeometry x="-70" y="460" width="100" height="40" as="geometry" />
        </mxCell>
        <mxCell id="4A74jkATEMNdM1Fh0lgV-11" value="Telefono" style="ellipse;shape=doubleEllipse;margin=3;whiteSpace=wrap;html=1;align=center;strokeColor=#DDA15E;fontColor=#FEFAE0;fillColor=#BC6C25;" vertex="1" parent="1">
          <mxGeometry x="-10" y="545" width="100" height="40" as="geometry" />
        </mxCell>
        <mxCell id="4A74jkATEMNdM1Fh0lgV-12" value="ID_Conductor" style="ellipse;whiteSpace=wrap;html=1;align=center;fontStyle=4;strokeColor=#DDA15E;fontColor=#FEFAE0;fillColor=#BC6C25;" vertex="1" parent="1">
          <mxGeometry x="130" y="555" width="100" height="40" as="geometry" />
        </mxCell>
        <mxCell id="4A74jkATEMNdM1Fh0lgV-13" value="Informacion" style="ellipse;whiteSpace=wrap;html=1;align=center;strokeColor=#DDA15E;fontColor=#FEFAE0;fillColor=#BC6C25;" vertex="1" parent="1">
          <mxGeometry x="630" y="280" width="100" height="40" as="geometry" />
        </mxCell>
        <mxCell id="4A74jkATEMNdM1Fh0lgV-14" value="Nombre" style="ellipse;whiteSpace=wrap;html=1;align=center;fontStyle=4;strokeColor=#DDA15E;fontColor=#FEFAE0;fillColor=#BC6C25;" vertex="1" parent="1">
          <mxGeometry x="727" y="430" width="100" height="40" as="geometry" />
        </mxCell>
        <mxCell id="4A74jkATEMNdM1Fh0lgV-15" value="Matricula" style="ellipse;whiteSpace=wrap;html=1;align=center;strokeColor=#DDA15E;fontColor=#FEFAE0;fillColor=#BC6C25;" vertex="1" parent="1">
          <mxGeometry x="190" y="800" width="100" height="40" as="geometry" />
        </mxCell>
        <mxCell id="4A74jkATEMNdM1Fh0lgV-16" value="Año" style="ellipse;whiteSpace=wrap;html=1;align=center;strokeColor=#DDA15E;fontColor=#FEFAE0;fillColor=#BC6C25;" vertex="1" parent="1">
          <mxGeometry x="260" y="860" width="100" height="40" as="geometry" />
        </mxCell>
        <mxCell id="4A74jkATEMNdM1Fh0lgV-17" value="Modelo" style="ellipse;whiteSpace=wrap;html=1;align=center;strokeColor=#DDA15E;fontColor=#FEFAE0;fillColor=#BC6C25;" vertex="1" parent="1">
          <mxGeometry x="420" y="860" width="100" height="40" as="geometry" />
        </mxCell>
        <mxCell id="4A74jkATEMNdM1Fh0lgV-18" value="N_Autobus" style="ellipse;whiteSpace=wrap;html=1;align=center;fontStyle=4;strokeColor=#DDA15E;fontColor=#FEFAE0;fillColor=#BC6C25;" vertex="1" parent="1">
          <mxGeometry x="500" y="800" width="100" height="40" as="geometry" />
        </mxCell>
        <mxCell id="4A74jkATEMNdM1Fh0lgV-20" value="" style="endArrow=none;html=1;rounded=0;strokeColor=#DDA15E;fontColor=#FEFAE0;fillColor=#BC6C25;" edge="1" parent="1" source="4A74jkATEMNdM1Fh0lgV-4" target="4A74jkATEMNdM1Fh0lgV-5">
          <mxGeometry relative="1" as="geometry">
            <mxPoint x="330" y="680" as="sourcePoint" />
            <mxPoint x="490" y="680" as="targetPoint" />
          </mxGeometry>
        </mxCell>
        <mxCell id="4A74jkATEMNdM1Fh0lgV-40" value="(1,N)" style="edgeLabel;html=1;align=center;verticalAlign=middle;resizable=0;points=[];fontColor=#FEFAE0;" vertex="1" connectable="0" parent="4A74jkATEMNdM1Fh0lgV-20">
          <mxGeometry x="0.7333" relative="1" as="geometry">
            <mxPoint as="offset" />
          </mxGeometry>
        </mxCell>
        <mxCell id="4A74jkATEMNdM1Fh0lgV-21" value="" style="endArrow=none;html=1;rounded=0;strokeColor=#DDA15E;fontColor=#FEFAE0;fillColor=#BC6C25;" edge="1" parent="1" source="4A74jkATEMNdM1Fh0lgV-2" target="4A74jkATEMNdM1Fh0lgV-5">
          <mxGeometry relative="1" as="geometry">
            <mxPoint x="410" y="730" as="sourcePoint" />
            <mxPoint x="410" y="625" as="targetPoint" />
          </mxGeometry>
        </mxCell>
        <mxCell id="4A74jkATEMNdM1Fh0lgV-35" value="(1,N)" style="edgeLabel;html=1;align=center;verticalAlign=middle;resizable=0;points=[];fontColor=#FEFAE0;" vertex="1" connectable="0" parent="4A74jkATEMNdM1Fh0lgV-21">
          <mxGeometry x="0.2887" y="-2" relative="1" as="geometry">
            <mxPoint y="-1" as="offset" />
          </mxGeometry>
        </mxCell>
        <mxCell id="4A74jkATEMNdM1Fh0lgV-22" value="" style="endArrow=none;html=1;rounded=0;strokeColor=#DDA15E;fontColor=#FEFAE0;fillColor=#BC6C25;" edge="1" parent="1" source="4A74jkATEMNdM1Fh0lgV-3" target="4A74jkATEMNdM1Fh0lgV-5">
          <mxGeometry relative="1" as="geometry">
            <mxPoint x="420" y="740" as="sourcePoint" />
            <mxPoint x="420" y="635" as="targetPoint" />
          </mxGeometry>
        </mxCell>
        <mxCell id="4A74jkATEMNdM1Fh0lgV-39" value="(1,N)" style="edgeLabel;html=1;align=center;verticalAlign=middle;resizable=0;points=[];fontColor=#FEFAE0;" vertex="1" connectable="0" parent="4A74jkATEMNdM1Fh0lgV-22">
          <mxGeometry x="0.3416" y="2" relative="1" as="geometry">
            <mxPoint x="1" as="offset" />
          </mxGeometry>
        </mxCell>
        <mxCell id="4A74jkATEMNdM1Fh0lgV-23" value="" style="endArrow=none;html=1;rounded=0;strokeColor=#DDA15E;fontColor=#FEFAE0;fillColor=#BC6C25;" edge="1" parent="1" source="4A74jkATEMNdM1Fh0lgV-18" target="4A74jkATEMNdM1Fh0lgV-4">
          <mxGeometry relative="1" as="geometry">
            <mxPoint x="430" y="750" as="sourcePoint" />
            <mxPoint x="430" y="645" as="targetPoint" />
          </mxGeometry>
        </mxCell>
        <mxCell id="4A74jkATEMNdM1Fh0lgV-24" value="" style="endArrow=none;html=1;rounded=0;strokeColor=#DDA15E;fontColor=#FEFAE0;fillColor=#BC6C25;" edge="1" parent="1" source="4A74jkATEMNdM1Fh0lgV-17" target="4A74jkATEMNdM1Fh0lgV-4">
          <mxGeometry relative="1" as="geometry">
            <mxPoint x="530" y="814" as="sourcePoint" />
            <mxPoint x="448" y="770" as="targetPoint" />
          </mxGeometry>
        </mxCell>
        <mxCell id="4A74jkATEMNdM1Fh0lgV-25" value="" style="endArrow=none;html=1;rounded=0;strokeColor=#DDA15E;fontColor=#FEFAE0;fillColor=#BC6C25;" edge="1" parent="1" source="4A74jkATEMNdM1Fh0lgV-16" target="4A74jkATEMNdM1Fh0lgV-4">
          <mxGeometry relative="1" as="geometry">
            <mxPoint x="470" y="870" as="sourcePoint" />
            <mxPoint x="420" y="770" as="targetPoint" />
          </mxGeometry>
        </mxCell>
        <mxCell id="4A74jkATEMNdM1Fh0lgV-26" value="" style="endArrow=none;html=1;rounded=0;strokeColor=#DDA15E;fontColor=#FEFAE0;fillColor=#BC6C25;" edge="1" parent="1" source="4A74jkATEMNdM1Fh0lgV-15" target="4A74jkATEMNdM1Fh0lgV-4">
          <mxGeometry relative="1" as="geometry">
            <mxPoint x="332" y="871" as="sourcePoint" />
            <mxPoint x="397" y="770" as="targetPoint" />
          </mxGeometry>
        </mxCell>
        <mxCell id="4A74jkATEMNdM1Fh0lgV-27" value="" style="endArrow=none;html=1;rounded=0;strokeColor=#DDA15E;fontColor=#FEFAE0;fillColor=#BC6C25;" edge="1" parent="1" source="4A74jkATEMNdM1Fh0lgV-2" target="4A74jkATEMNdM1Fh0lgV-12">
          <mxGeometry relative="1" as="geometry">
            <mxPoint x="281" y="814" as="sourcePoint" />
            <mxPoint x="370" y="770" as="targetPoint" />
          </mxGeometry>
        </mxCell>
        <mxCell id="4A74jkATEMNdM1Fh0lgV-28" value="" style="endArrow=none;html=1;rounded=0;strokeColor=#DDA15E;fontColor=#FEFAE0;fillColor=#BC6C25;" edge="1" parent="1" source="4A74jkATEMNdM1Fh0lgV-2" target="4A74jkATEMNdM1Fh0lgV-11">
          <mxGeometry relative="1" as="geometry">
            <mxPoint x="182" y="490" as="sourcePoint" />
            <mxPoint x="188" y="565" as="targetPoint" />
          </mxGeometry>
        </mxCell>
        <mxCell id="4A74jkATEMNdM1Fh0lgV-29" value="" style="endArrow=none;html=1;rounded=0;strokeColor=#DDA15E;fontColor=#FEFAE0;fillColor=#BC6C25;" edge="1" parent="1" source="4A74jkATEMNdM1Fh0lgV-2" target="4A74jkATEMNdM1Fh0lgV-10">
          <mxGeometry relative="1" as="geometry">
            <mxPoint x="155" y="490" as="sourcePoint" />
            <mxPoint x="72" y="557" as="targetPoint" />
          </mxGeometry>
        </mxCell>
        <mxCell id="4A74jkATEMNdM1Fh0lgV-30" value="" style="endArrow=none;html=1;rounded=0;strokeColor=#DDA15E;fontColor=#FEFAE0;fillColor=#BC6C25;" edge="1" parent="1" source="4A74jkATEMNdM1Fh0lgV-2" target="4A74jkATEMNdM1Fh0lgV-9">
          <mxGeometry relative="1" as="geometry">
            <mxPoint x="165" y="500" as="sourcePoint" />
            <mxPoint x="82" y="567" as="targetPoint" />
          </mxGeometry>
        </mxCell>
        <mxCell id="4A74jkATEMNdM1Fh0lgV-31" value="" style="endArrow=none;html=1;rounded=0;strokeColor=#DDA15E;fontColor=#FEFAE0;fillColor=#BC6C25;" edge="1" parent="1" source="4A74jkATEMNdM1Fh0lgV-2" target="4A74jkATEMNdM1Fh0lgV-6">
          <mxGeometry relative="1" as="geometry">
            <mxPoint x="175" y="510" as="sourcePoint" />
            <mxPoint x="92" y="577" as="targetPoint" />
          </mxGeometry>
        </mxCell>
        <mxCell id="4A74jkATEMNdM1Fh0lgV-32" value="" style="endArrow=none;html=1;rounded=0;strokeColor=#DDA15E;fontColor=#FEFAE0;fillColor=#BC6C25;" edge="1" parent="1" source="4A74jkATEMNdM1Fh0lgV-8" target="4A74jkATEMNdM1Fh0lgV-6">
          <mxGeometry relative="1" as="geometry">
            <mxPoint x="174" y="450" as="sourcePoint" />
            <mxPoint x="146" y="360" as="targetPoint" />
          </mxGeometry>
        </mxCell>
        <mxCell id="4A74jkATEMNdM1Fh0lgV-33" value="" style="endArrow=none;html=1;rounded=0;strokeColor=#DDA15E;fontColor=#FEFAE0;fillColor=#BC6C25;" edge="1" parent="1" source="4A74jkATEMNdM1Fh0lgV-7" target="4A74jkATEMNdM1Fh0lgV-6">
          <mxGeometry relative="1" as="geometry">
            <mxPoint x="69" y="269" as="sourcePoint" />
            <mxPoint x="121" y="321" as="targetPoint" />
          </mxGeometry>
        </mxCell>
        <mxCell id="4A74jkATEMNdM1Fh0lgV-34" value="0,1" style="edgeLabel;html=1;align=center;verticalAlign=middle;resizable=0;points=[];fontColor=#FEFAE0;" vertex="1" connectable="0" parent="4A74jkATEMNdM1Fh0lgV-33">
          <mxGeometry x="-0.3669" y="-1" relative="1" as="geometry">
            <mxPoint x="-1" as="offset" />
          </mxGeometry>
        </mxCell>
        <mxCell id="4A74jkATEMNdM1Fh0lgV-36" value="" style="endArrow=none;html=1;rounded=0;strokeColor=#DDA15E;fontColor=#FEFAE0;fillColor=#BC6C25;" edge="1" parent="1" source="4A74jkATEMNdM1Fh0lgV-3" target="4A74jkATEMNdM1Fh0lgV-14">
          <mxGeometry relative="1" as="geometry">
            <mxPoint x="603" y="490" as="sourcePoint" />
            <mxPoint x="439" y="579" as="targetPoint" />
          </mxGeometry>
        </mxCell>
        <mxCell id="4A74jkATEMNdM1Fh0lgV-37" value="" style="endArrow=none;html=1;rounded=0;strokeColor=#DDA15E;fontColor=#FEFAE0;fillColor=#BC6C25;" edge="1" parent="1" source="4A74jkATEMNdM1Fh0lgV-3" target="4A74jkATEMNdM1Fh0lgV-13">
          <mxGeometry relative="1" as="geometry">
            <mxPoint x="690" y="467" as="sourcePoint" />
            <mxPoint x="738" y="463" as="targetPoint" />
          </mxGeometry>
        </mxCell>
        <mxCell id="4A74jkATEMNdM1Fh0lgV-41" value="&lt;font style=&quot;font-size: 14px;&quot;&gt;N:M:P&lt;/font&gt;" style="text;html=1;align=center;verticalAlign=middle;resizable=0;points=[];autosize=1;strokeColor=none;fillColor=none;fontColor=#FEFAE0;" vertex="1" parent="1">
          <mxGeometry x="370" y="508" width="60" height="30" as="geometry" />
        </mxCell>
      </root>
    </mxGraphModel>
  </diagram>
</mxfile>
